<svg height="57" viewBox="0 0 60 57" width="60" xmlns="http://www.w3.org/2000/svg"><g fill="none" fill-rule="evenodd" transform="translate(0 1)"><circle cx="35.02" cy="25.02" fill="#ffa4f6" fill-rule="nonzero" r="13.02"/><g stroke-linecap="round" stroke-linejoin="round"><path d="m51 28 8.22 2.05" stroke="#ffa4f6" stroke-width="1.63"/><path d="m50 18.67 8.04-2.67" stroke="#ffa4f6" stroke-width="1.63"/><path d="m45 11 4.76-7" stroke="#ffa4f6" stroke-width="1.63"/><path d="m36 8.46.44-8.46" stroke="#ffa4f6" stroke-width="1.63"/><path d="m26.8 10.99-4.8-6.99" stroke="#ffa4f6" stroke-width="1.63"/><circle cx="34" cy="25" r="12" stroke="#1b1723" stroke-width="1.5"/></g><path d="m.58080344 34.3453919c-1.053864-2.0058119-.64582692-4.4676977.99880191-6.0262568 1.64462883-1.5585592 4.12487431-1.8338011 6.07119809-.6737432-.35249182-3.4082067 1.61317779-6.6325611 4.80421616-7.8805183 3.1910384-1.2479573 6.8226107-.2125828 8.8757838 2.5305183 3.29-4.19 8.81-5.36 12.61-3.31 4.7 2.54 6.55 9.88 2.48 15.36z" fill="#5d76dd" fill-rule="nonzero"/><path d="m1.53870596 34.0506376c-.97579036-1.8493144-.60030345-4.1221858.91843299-5.559395s3.80884921-1.6868454 5.60156701-.610605c-.37216318-3.1610335 1.43508451-6.1752107 4.39865484-7.336197 2.9635702-1.1609863 6.3373141-.1764759 8.2113452 2.396197 3-3.85 8.12-4.94 11.62-3 4.33 2.33 6 9.1 2.28 14.15z" stroke="#1b1723" stroke-linecap="round" stroke-linejoin="round" stroke-width="1.5"/><path d="m16.2486779 45.3453919c-4.08-5.48-2.22-12.82 2.47-15.36 3.81-2.05 9.32-.88 12.62 3.31 2.048559-2.7496379 5.682966-3.7896956 8.8760011-2.5400439 3.1930351 1.2496516 5.1560073 4.4803441 4.7939989 7.8900439 1.946688-1.169164 4.4338551-.8982742 6.0832061.6625523 1.649351 1.5608266 2.0568982 4.029285.9967939 6.0374477 1.9806522.301873 3.520071 1.8821252 3.77 3.87.0162948 1.2355278-.4673266 2.4252212-1.3410527 3.2989473-.873726.8737261-2.0634195 1.3573475-3.2989473 1.3410527h-31.67z" fill="#86eddf" fill-rule="nonzero"/><path d="m17.0597527 44.0699295c-3.76-5.05-2-11.82 2.28-14.16 3.51-1.89 8.6-.81 11.63 3 1.876691-2.5590291 5.2401023-3.5354342 8.195362-2.3791302 2.9552598 1.156304 4.7629419 4.1560021 4.404638 7.3091302 1.7953953-1.0639808 4.0787959-.8075582 5.5934807.6281401 1.5146849 1.4356982 1.8929135 3.7021081.9265193 5.5518599 1.8275108.2747139 3.2516277 1.7273947 3.49 3.56.0135475 1.1392257-.4330281 2.2357496-1.2386393 3.0413608-.8056111.8056112-1.902135 1.2521867-3.0413607 1.2386392h-29.22z" stroke="#1b1723" stroke-linecap="round" stroke-linejoin="round" stroke-width="1.5"/><path d="m2.58080344 54.3501649c-1.053864-2.0058119-.64582692-4.4676977.99880191-6.0262568s4.12487431-1.8338011 6.07119809-.6737432c-.35798138-3.4101919 1.60589296-6.6394679 4.79850786-7.8903755s6.8275229-.2153065 8.8814921 2.5303755c3.29-4.18 8.81-5.36 12.61-3.3 4.7 2.53 6.55 9.88 2.48 15.36z" fill="#5d76dd" fill-rule="nonzero"/><path d="m3.53870596 55.0506376c-.97579036-1.8493144-.60030345-4.1221858.91843299-5.559395s3.80884921-1.6868454 5.60156705-.610605c-.37216322-3.1610335 1.4350845-6.1752107 4.3986548-7.336197 2.9635702-1.1609863 6.3373141-.1764759 8.2113452 2.396197 3-3.85 8.12-4.94 11.62-3 4.33 2.33 6 9.1 2.28 14.15z" stroke="#1b1723" stroke-linecap="round" stroke-linejoin="round" stroke-width="1.5"/></g></svg>