<svg height="56" viewBox="0 0 56 56" width="56" xmlns="http://www.w3.org/2000/svg"><g fill="none" fill-rule="evenodd"><path d="m48.420001 9.56792254c-.7129449-.8499017-1.4848541-1.64854363-2.31-2.39-8.0708056-7.34515366-19.7154633-9.23637185-29.6959887-4.82294934-9.98052533 4.41342252-16.41693484 14.3001506-16.4140113 25.2129493v1.49c.07770865 1.3848124.25820553 2.7619368.54 4.12 2.32882055 11.3063067 11.4571388 19.9632819 22.8709241 21.6899782s22.694307-3.842796 28.2632517-13.9543156c5.5689447-10.1115197 4.2461799-22.6223033-3.3141758-31.34566256zm-20.84 25.73999996c-3.4787379-.0037505-6.5252556-2.3336814-7.44-5.69-.1740656-.6525961-.2647873-1.3246087-.27-2-.0091564-.5230459.0343968-1.045684.13-1.56.8155461-3.9738598 4.5709714-6.636008 8.5907131-6.08979 4.0197416.546218 6.9286283 4.1139386 6.6542159 8.1613298-.2744124 4.0473911-3.6382462 7.1898224-7.694929 7.1884602z" fill="#ffa4f6" fill-rule="nonzero"/><g stroke="#1b1723" stroke-width="1.5"><path d="m46.9200837 11.6749519c-.6508161-.7693628-1.3523831-1.4943154-2.1-2.16999995-7.3300977-6.66608745-17.9052543-8.3743268-26.961376-4.3551585-9.05612165 4.0191683-14.88417274 13.00726265-14.85862404 22.91515845v1.35c.07139548 1.2569962.23517084 2.5070367.49 3.74 2.12484269 10.249873 10.41045094 18.0906921 20.76186394 19.6473228 10.3514131 1.5566308 20.5766058-3.5005604 25.6220248-12.6721796s3.8426416-20.5154754-3.0138887-28.4251432zm-18.92 23.39c-3.1530958-.0005004-5.9166819-2.1090143-6.75-5.15-.7935441-2.8958402.3481329-5.975224 2.837661-7.65387 2.4895281-1.6786461 5.7723332-1.5826146 8.1594777.2386883 2.3871444 1.8213028 3.3468615 4.9621585 2.3853958 7.8066596s-3.6299352 4.7589987-6.6325345 4.7585221z"/><rect fill="#86eddf" fill-rule="nonzero" height="8" rx="1.5" transform="matrix(.98360296 .18034748 -.18034748 .98360296 2.335572 -5.278585)" width="3" x="28.696794" y="6.204933"/><rect fill="#86eddf" fill-rule="nonzero" height="8" rx="1.5" transform="matrix(.61373417 -.78951274 .78951274 .61373417 -6.136719 18.735192)" width="3" x="14.578652" y="11.639206"/><path d="m20.8693245 29.9502895-2.86-1.05c-.6950864-.2369848-1.11385-.9450839-.9866532-1.6683597s.7624188-1.2460189 1.4966532-1.2316403c.1771531.0006359.3529379.0310602.52.09l1.72.63c-.2184115 1.0702888-.1807199 2.17705.11 3.23z" fill="#ffa4f6" fill-rule="nonzero"/><rect fill="#5d76dd" fill-rule="nonzero" height="8" rx="1.5" transform="matrix(.78951274 .61373417 -.61373417 .78951274 25.627315 -.566263)" width="3" x="12.139206" y="33.078652"/><path d="m7.46 28.5045931c.00452427.3966834-.15039472.7785767-.43 1.06l-3.54 3.54c-.25482916-1.2329634-.41860452-2.4830038-.49-3.74l1.93-1.93c.58787977-.5794575 1.53212023-.5794575 2.12 0 .27479487.2871462.42254953.6727499.41 1.07z" fill="#ffa4f6" fill-rule="nonzero"/><rect fill="#5d76dd" fill-rule="nonzero" height="8" rx="1.5" transform="matrix(.83311436 -.55310077 .55310077 .83311436 -7.217086 28.404988)" width="3" x="41.962075" y="22.162109"/><path d="m46.776469 11.22-2.12 2.49c-.3572656.4072828-.9046754.5930287-1.4360254.4872691-.5313501-.1057597-.9659157-.4869576-1.1400001-1.0000001s-.0612401-1.0799862.2960255-1.487269l2.3-2.71c.749307.69175091 1.4509119 1.4334475 2.1 2.22z" fill="#ffa4f6" fill-rule="nonzero"/><rect fill="#5d76dd" fill-rule="nonzero" height="8" rx="1.5" transform="matrix(.70710678 .70710678 -.70710678 .70710678 39.596194 -15.815494)" width="3" x="37.389087" y="35.889087"/><rect fill="#86eddf" fill-rule="nonzero" height="8" rx="1.5" transform="matrix(-.70710678 .70710678 -.70710678 -.70710678 74.936814 60.738329)" width="3" x="23.389087" y="41.889087"/></g></g></svg>