<svg height="62" viewBox="0 0 62 62" width="62" xmlns="http://www.w3.org/2000/svg"><g fill="none" fill-rule="evenodd" stroke-linecap="round" stroke-linejoin="round" transform="translate(1 1)"><g fill-rule="nonzero"><rect fill="#86eddf" height="52" rx="3" stroke="#86eddf" stroke-width="1.56" transform="matrix(.98531864 .17072543 -.17072543 .98531864 5.572799 -4.69024)" width="52" x="4.057146" y="4.057146"/><path d="m3.47878934 19.1928751h51.99999996v33.51h-51.99999996z" fill="#5d76dd" stroke="#5d76dd" stroke-width="1.73" transform="matrix(.98531864 .17072543 -.17072543 .98531864 6.570005 -4.505015)"/><g fill="#ffa4f6" stroke="#ffa4f6" stroke-width="1.36"><circle cx="16.64" cy="8.64" r="3.64"/><path d="m30.2080399 11.0639619h24.57v4.55h-24.57z" transform="matrix(.98531864 .17072543 -.17072543 .98531864 2.901156 -7.058809)"/></g></g><g stroke="#1b1723"><rect height="50" rx="3" stroke-width="1.5" transform="matrix(.98531864 .17072543 -.17072543 .98531864 5.543867 -4.66589)" width="50" x="4.901102" y="4.901102"/><path d="m4.38335279 20.0316192h50.00000001v32.22h-50.00000001z" stroke-width="1.67" transform="matrix(.98531864 .17072543 -.17072543 .98531864 6.601681 -4.485878)"/><path d="m10.5880573 17.1455924h3.33v18.89h-3.33z" fill="#000" fill-rule="nonzero" stroke-width="1.11" transform="matrix(.98531864 .17072543 -.17072543 .98531864 4.719582 -1.701522)"/><path d="m18.5880573 18.1455924h3.33v18.89h-3.33z" fill="#000" fill-rule="nonzero" stroke-width="1.11" transform="matrix(.98531864 .17072543 -.17072543 .98531864 5.007758 -3.052645)"/><path d="m25.5880573 19.1455924h3.33v18.89h-3.33z" fill="#000" fill-rule="nonzero" stroke-width="1.11" transform="matrix(.98531864 .17072543 -.17072543 .98531864 5.281253 -4.233041)"/><path d="m38.5880573 22.1455924h3.33v18.89h-3.33z" fill="#000" fill-rule="nonzero" stroke-width="1.11" transform="matrix(.98531864 .17072543 -.17072543 .98531864 5.984287 -6.408428)"/><path d="m46.5880573 23.1455924h3.33v18.89h-3.33z" fill="#000" fill-rule="nonzero" stroke-width="1.11" transform="matrix(.98531864 .17072543 -.17072543 .98531864 6.272463 -7.75955)"/><path d="m11.27 35-2.27 13.14" stroke-width="1.67"/><path d="m18.27 37-2.27 13.14" stroke-width="1.67"/><path d="m26.28 38-2.28 13.14" stroke-width="1.67"/><path d="m35.5 20-5.5 31.75" stroke-width="1.67"/><path d="m39.28 40-2.28 13.14" stroke-width="1.67"/><path d="m47.28 42-2.28 13.14" stroke-width="1.67"/><circle cx="17.5" cy="9.5" r="3.5" stroke-width="1.31"/><path d="m31.2011016 11.9768171h23.7360968v4.3996658h-23.7360968z" stroke-width="1.315882" transform="matrix(.98557485 .16924012 -.16924012 .98557485 3.020537 -7.084528)"/></g></g></svg>