<svg height="51" viewBox="0 0 50 51" width="50" xmlns="http://www.w3.org/2000/svg"><g fill="none" fill-rule="evenodd" stroke-linecap="round" stroke-linejoin="round" transform="translate(1 1)"><path d="m38.1802503 37.21c-8.8972373.0045479-17.1498448-4.6411953-21.7610722-12.2502317s-4.9104181-17.07470836-.7889278-24.9597683c-10.36216984 4.33420738-16.65774144 14.9488766-15.49198368 26.1203101 1.16575775 11.1714335 9.51715151 20.2576674 20.55089898 22.3591751 11.0337475 2.1015076 22.1404465-3.2787024 27.3310847-13.2394852-3.1161908 1.3050415-6.461575 1.9747983-9.84 1.97z" fill="#86eddf" fill-rule="nonzero" stroke="#86eddf" stroke-width="1.53"/><path d="m23.05 10.73 1.19-3.73 1.18 3.05 3.06-.34-1.87 2.38 1.53 2.03-3.06-.34-1.35 2.38-.85-3.05-2.88-1.19z" fill="#ffa4f6" fill-rule="nonzero" stroke="#ffa4f6" stroke-width="1.53"/><g stroke="#1b1723"><path d="m35.994825 37.1c-8.3914062.0003976-16.1736326-4.3819957-20.5240002-11.5576489-4.3503675-7.1756533-4.6370252-16.10236862-.7559998-23.5423511-9.76178191 4.09599148-15.68689658 14.1041731-14.58327267 24.6327792 1.10362392 10.5286061 8.97529042 19.0905889 19.37425097 21.0733018 10.3989606 1.9827129 20.8687922-3.0821968 25.7690217-12.466081-2.938495 1.232157-6.0936318 1.8645443-9.28 1.86z" stroke-width="1.44"/><path d="m22.88 11.52 1.12-3.52 1.12 2.88 2.88-.32-1.76 2.24 1.44 1.92-2.88-.32-1.28 2.24-.8-2.88-2.72-1.12z" stroke-width=".96"/></g></g></svg>