<svg height="44" viewBox="0 0 57 44" width="57" xmlns="http://www.w3.org/2000/svg"><g fill="none" fill-rule="evenodd" transform="translate(1 1)"><g fill-rule="nonzero" stroke-width="1.56"><path d="m44.3842024 8.9210382-.22 2-2.54 21.67c-1.24 5.43-6.83 9.18-13 8.47l-17.88-2c-6.55999996-.75-11.35999996-6.28-10.67999996-12.29l2.58-22.57c.44004692-2.71600258 2.99177742-4.56611892 5.71-4.14l31.39999996 3.59c2.7234484.19768433 4.7846183 2.54376756 4.63 5.27z" fill="#5d76dd" stroke="#5d76dd"/><path d="m45.54 11-.59 5.18c2.7993278.695551 4.6476954 3.3604929 4.3183186 6.2260711s-2.7341827 5.0416496-5.6183186 5.0839289l-.47 4.09c-.0396854.3663977-.0997788.7302963-.18 1.09 5.6787576.1721361 10.5459128-4.0274844 11.2073133-9.6702203.6614006-5.6427359-3.1026737-10.8540464-8.6673133-11.9997797z" fill="#5d76dd" stroke="#5d76dd"/><path d="m.29420244 25-.23 2c-.68 6 4.12 11.54 10.67999996 12.29l17.88 2c6.16.71 11.75-3 13-8.47l.36-3.08z" fill="#ffa4f6" stroke="#ffa4f6"/></g><path d="m44.6628981 9.67783345-.22 1.91000005-2.44 20.84c-1.19 5.22-6.56 8.82-12.49 8.15l-17.19-2c-6.31000001-.72-10.92000001-6-10.26000001-11.81l2.48-21.71000005c.41494725-2.61845407 2.87037199-4.40747027 5.49000001-4l30.18 3.45c1.2770519.09198367 2.4647306.68932463 3.2999857 1.65972217s1.2491501 2.23376124 1.1500143 3.51027783z" stroke="#1b1723" stroke-width="1.5"/><path d="m44.44 12-.57 5c2.6783484.6780356 4.442894 3.2317937 4.1297528 5.9768301s-2.6075095 4.8357721-5.3697528 4.8931699l-.45 3.93c-.0388609.353297-.0989697.7039321-.18 1.05 5.4628245.1675153 10.1457452-3.8722257 10.7813058-9.3005381s-2.9875325-10.4405425-8.3413058-11.5394619z" stroke="#1b1723" stroke-width="1.5"/><path d="m3 25 39.74 4.55" stroke="#1b1723" stroke-width="1.5"/></g></svg>