<svg height="58" viewBox="0 0 56 58" width="56" xmlns="http://www.w3.org/2000/svg"><g fill="none" fill-rule="evenodd" transform="translate(1 1)"><g fill-rule="nonzero"><path d="m45.0963311 18.7907172c.1760204.2089192.2654649.4772525.25.75-.0156343.2918014-.1581229.5621645-.39.74-8.7395842 11.6523659-20.1174415 21.0665147-33.2 27.47-.2103248.1943195-.4938617.2891518-.7787721.2604696-.2849103-.0286823-.5438556-.1781269-.7112279-.4104696-.0910312-.1257414-.1556628-.2686112-.19-.42l-.99999997-4.5-2.19-10-6.84-31.37999995c-.12252666-.38860121.00297613-.8126822.31725294-1.07201551.31427681-.25933332.75447089-.30205114 1.11274706-.10798449l4 1.69 8.29999997 3.54 30.93 13.15999995c.1520452.0580016.2864284.1544818.39.28z" fill="#86eddf" stroke="#86eddf" stroke-width="1.57"/><circle cx="40" cy="25" fill="#ffa4f6" r="4" stroke="#ffa4f6" stroke-width="1.51"/><path d="m46.75 17.0949746c-1.37.67-8.87 12.07-17 18.66-6.071443 4.9173883-12.8039783 8.9569095-20 12-.42424279.3542639-.69335939.8602031-.75 1.41 0 .54 1.66 6.25 4.36 7s14.56-6.54 21.69-12.1c8.85-6.91 18.49-20.26 18.57-21.1.0525604-.5521612-.1165195-1.1025703-.47-1.53-1.67-1.89-5.03-5.02-6.4-4.34z" fill="#5d76dd" stroke="#5d76dd" stroke-width="1.57"/><circle cx="22" cy="20" fill="#ffa4f6" r="5" stroke="#ffa4f6" stroke-width="1.5"/><path d="m13.1 33.8795181c1.2761435 1.5443949 1.557905 3.6820812.7255164 5.5043948s-2.6326373 3.0089882-4.6355164 3.0556052l-2.19-10c2.12699186-.9334732 4.6150144-.3461367 6.1 1.44z" fill="#ffa4f6" stroke="#ffa4f6" stroke-width="1.57"/><path d="m14.3497666 4.54c-.1285814 1.20676449-.7288374 2.31382339-1.67 3.08-1.8721988 1.52085945-4.59080768 1.38151208-6.29769433-.32280008-1.70688666-1.70431217-1.85033743-4.42270757-.33230567-6.29719992z" fill="#ffa4f6" stroke="#ffa4f6" stroke-width="1.57"/></g><path d="m45.0823673 18.9701911c.1764093.2051603.2621524.4730501.2376557.7425141-.0244967.2694641-.1571423.5175004-.3676557.6874859-8.3585734 11.1427315-19.2393389 20.1454939-31.75 26.27-.2107337.1782699-.4857809.2615078-.76.23-.2599689-.0321306-.4969514-.1649844-.66-.37-.0891547-.1231504-.1536709-.2623694-.19-.41l-.93-4.3-2.08999996-9.61-6.55-30.00000001c-.07852914-.36528505.05312921-.74387983.34136386-.98162082.28823465-.23774098.68496246-.29496836 1.02863614-.14837918l3.79 1.62 7.93999996 3.38 29.6 12.61000001c.1387277.0663776.2615165.16188.36.28z" stroke="#1b1723" stroke-width="1.5"/><circle cx="40" cy="25" r="4" stroke="#1b1723" stroke-width="1.51"/><path d="m46.16 18.0882262c-1.32.64-8.48 11.55-16.28 17.85-5.821271 4.7022823-12.2743444 8.5633544-19.17 11.47-.3997169.347566-.6533231.8333469-.71 1.36 0 .51 1.58 6 4.17 6.72s13.92-6.25 20.74-11.57c8.47-6.6 17.68-19.37 17.76-20.17.0518351-.5303835-.1101459-1.0595214-.45-1.47-1.54-1.84-4.75-4.83-6.06-4.19z" fill="#5d76dd" fill-rule="nonzero" stroke="#1b1723" stroke-width="1.5"/><circle cx="22" cy="21" r="5" stroke="#1b1723" stroke-width="1.5"/><path d="m13.83 33.8314762c1.2180317 1.476822 1.4859378 3.5194627.6899417 5.260438-.795996 1.7409752-2.516153 2.8746482-4.4299417 2.919562l-2.09-9.61c2.0451182-.8726742 4.4208103-.2899572 5.83 1.43z" stroke="#1b1723" stroke-width="1.5"/><path d="m14.9670529 6.33c-.1087188 1.1743191-.6853534 2.25550905-1.6 3-1.7875454 1.4775879-4.40529553 1.3546511-6.04649553-.28396024-1.64120001-1.63861136-1.76826888-4.25616418-.29350447-6.04603976z" stroke="#1b1723" stroke-width="1.5"/></g></svg>