<svg height="61" viewBox="0 0 61 61" width="61" xmlns="http://www.w3.org/2000/svg"><g fill="none" fill-rule="evenodd" transform="translate(1 1)"><path d="m2.57350757 3.32528514h48.92000003c1.1045695 0 2 .8954305 2 2v8.37999996c0 1.1045695-.8954305 2-2 2h-48.92000003c-1.1045695 0-2-.8954305-2-2v-8.37999996c0-1.1045695.8954305-2 2-2z" fill="#ffa4f6" fill-rule="nonzero" stroke="#ffa4f6" stroke-width="1.59" transform="matrix(.99182778 -.12758395 .12758395 .99182778 -.993074 3.526803)"/><path d="m5.88927784 24.3050589h48.91999996c1.1045695 0 2 .8954305 2 2v13.33c0 1.1045695-.8954305 2-2 2h-48.91999996c-1.1045695 0-2-.8954305-2-2v-13.33c0-1.1045695.8954305-2 2-2z" fill="#ffa4f6" fill-rule="nonzero" stroke="#ffa4f6" stroke-width="1.59" transform="matrix(.99182778 -.12758395 .12758395 .99182778 -3.958429 4.141519)"/><ellipse cx="29.1107" cy="30.1021" rx="6.340468" ry="6.330483" style="stroke:#5d76dd;stroke-width:1.457808;fill:#5d76dd;fill-rule:nonzero;stroke-linecap:round;stroke-linejoin:round" transform="matrix(.99148835 -.13019544 .13019544 .99148835 -3.671376 4.046299)"/><path d="m7.73107374 41.3151924h48.91999996c1.1045695 0 2 .8954305 2 2v10.85c0 1.1045695-.8954305 2-2 2h-48.91999996c-1.1045695 0-2-.8954305-2-2v-10.85c0-1.1045695.8954305-2 2-2z" fill="#ffa4f6" fill-rule="nonzero" stroke="#ffa4f6" stroke-width="1.59" transform="matrix(.99182778 -.12758395 .12758395 .99182778 -5.955393 4.50538)"/><path d="m11.9602467 48.7133818h40.67c.5522847 0 1 .4477152 1 1v.11c0 .5522847-.4477153 1-1 1h-40.67c-.5522848 0-1-.4477153-1-1v-.11c0-.5522848.4477152-1 1-1z" fill="#5d76dd" fill-rule="nonzero" transform="matrix(.99182778 -.12758395 .12758395 .99182778 -6.085723 4.527073)"/><path d="m4.53471089 19.0330918h1.06v8.45h-1.06z" stroke="#ffa4f6" stroke-linecap="round" stroke-linejoin="round" stroke-width="1.06" transform="matrix(.99182778 -.12758395 .12758395 .99182778 -2.925969 .836246)"/><path d="m51.5347109 12.0330918h1.06v8.45h-1.06z" stroke="#ffa4f6" stroke-linecap="round" stroke-linejoin="round" stroke-width="1.06" transform="matrix(.99182778 -.12758395 .12758395 .99182778 -1.648787 6.775486)"/><g stroke="#1b1723"><path d="m4.54107067 5.13740742h45.93000003c1.1045695 0 2 .8954305 2 2v7.67999998c0 1.1045695-.8954305 2-2 2h-45.93000003c-1.1045695 0-2-.8954305-2-2v-7.67999998c0-1.1045695.8954305-2 2-2z" stroke-width="1.5" transform="matrix(.99182778 -.12758395 .12758395 .99182778 -1.175755 3.599043)"/><path d="m34.3834201 4.92712355h14.98v6.97000005h-14.98z" fill="#5d76dd" fill-rule="nonzero" stroke-linecap="round" stroke-linejoin="round" stroke-width="1.5" transform="matrix(.99182778 -.12758395 .12758395 .99182778 -.731053 5.411122)"/><path d="m5.85057563 22.1759717h45.85504877c1.1045695 0 2 .8954305 2 2v12.3254566c0 1.1045695-.8954305 2-2 2h-45.85504877c-1.1045695 0-2-.8954305-2-2v-12.3254566c0-1.1045695.8954305-2 2-2z" stroke-width="1.497748" transform="matrix(.99148835 -.13019544 .13019544 .99148835 -3.705011 4.00501)"/><ellipse cx="29.704" cy="32.695358" rx="5.99" ry="5.98" stroke-linecap="round" stroke-linejoin="round" stroke-width="1.38" transform="matrix(.99182778 -.12758395 .12758395 .99182778 -3.928655 4.056947)"/><path d="m45.4160681 24.4174257h6.99v6.97h-6.99z" fill="#5d76dd" fill-rule="nonzero" stroke-linecap="round" stroke-linejoin="round" stroke-width="1.38" transform="matrix(.99182778 -.12758395 .12758395 .99182778 -3.160189 6.468292)"/><path d="m8.68970596 40.1278868h45.93000004c1.1045695 0 2 .8954305 2 2v10.01c0 1.1045695-.8954305 2-2 2h-45.93000004c-1.1045695 0-2-.8954305-2-2v-10.01c0-1.1045695.8954305-2 2-2z" stroke-width="1.5" transform="matrix(.99182778 -.12758395 .12758395 .99182778 -5.75471 4.423813)"/></g></g></svg>