<svg height="60" viewBox="0 0 57 60" width="57" xmlns="http://www.w3.org/2000/svg"><g fill="none" fill-rule="evenodd"><path d="m46.6235962 4.68393912c-8.15-9.65-26.87-1.51-28.41-.82-1.24.55-19.67999996 9.09999998-18.11999996 21.76999998.84 6.91 7.16 11.18 9.18 12.43 0 0 4.26999996 18.68 7.52999996 20.11s38.73-12.74 39.74-14.88-7.53-20.11-7.53-20.11 3.35-11.68-2.39-18.49999998z" fill="#5d76dd" fill-rule="nonzero"/><path d="m38.2292437 42.0105029s-14.41-.45-17.54-3.54c-2.3814827-2.3920172-3.26733-5.8932231-2.31-9.13.8927575-2.0418862 2.0383862-3.9635859 3.41-5.72 2.37-3 4.76-6.18 8.65-6.56 2.8316542-.3237061 5.6561465.663209 7.67 2.68 2 2.18 4.14 5.84 5.28 7.26.7355796.9171923 1.0675653 2.0935765.92 3.26l-1 7.82c-.356947 2.4652916-2.6040868 4.2037284-5.08 3.93z" fill="#ffa4f6" fill-rule="nonzero"/><path d="m32.1321856 40.3914731-7.93-.84c-.958623-.0919031-1.8384313-.5703894-2.4365662-1.3251338-.5981349-.7547443-.862967-1.7205992-.7334338-2.6748662l.82-6.34c.2847762-1.993847 2.097331-3.4041031 4.1-3.19l7.93.85c.9586231.0919031 1.8384314.5703894 2.4365663 1.3251338.5981349.7547443.862967 1.7205992.7334337 2.6748662l-.82 6.34c-.2847561 1.9926355-2.0991699 3.3999126-4.1 3.18z"/><g stroke="#1b1723" stroke-width="1.5" transform="translate(1 3)"><path d="m44.8288359 4.51134046c-7.82-9.29-25.83-1.46-27.3-.8-1.2.54-18.93000001 8.76000004-17.44000001 20.94000004.82 6.64 6.89 10.74 8.84 11.95 0 0 4.11000001 18 7.23000001 19.33s37.24-12.24 38.21-14.3-7.23-19.33-7.23-19.33 3.22-11.24-2.31-17.79000004z"/><path d="m35.4458223 40.0464293s-13.86-.43-16.86-3.39c-2.2908823-2.2999374-3.142386-5.6675961-2.22-8.78.8557696-1.9649594 1.9579436-3.8131171 3.28-5.5 2.28-2.91 4.57-5.94 8.31-6.32 2.7212386-.3060028 5.4337664.643566 7.37 2.58 1.94 2.1 4 5.62 5.08 7 .7121653.8774668 1.0305701 2.009975.88 3.13l-1 7.52c-.3461527 2.3471975-2.4800961 4.0049717-4.84 3.76z"/><path d="m31.7042601 36.800072-7.62-.81c-.9149399-.0902588-1.7550079-.5450915-2.3307164-1.261905-.5757084-.7168134-.8385666-1.6352319-.7292836-2.548095l.79-6.09c.2792426-1.9176572 2.0227526-3.2727397 3.95-3.07l7.62.82c.9149399.0902589 1.7550079.5450916 2.3307163 1.261905s.8385666 1.635232.7292837 2.548095l-.79 6.09c-.2792416 1.9164323-2.0245894 3.2685245-3.95 3.06z"/></g></g></svg>