<svg height="67" viewBox="0 0 71 67" width="71" xmlns="http://www.w3.org/2000/svg"><g fill="none" fill-rule="evenodd" transform="translate(0 1)"><path d="m17.9121189 64.3061649c-3.28 2.27-18.40000003-.7-17.90000003-7.68s10.73000003-4.92 12.18000003-10.48-4.00000003-7.23-3.33000003-11.47c.74-4.66 6.72000003-3.68 11.36000003-8.93 5.16-5.84-2.27-11.15 5.63-15.53 7.9-4.37999999 11.25 4.37 13.5 5.81" fill="#5d76dd" fill-rule="nonzero"/><path d="m17.6263654 65.34s-6.28-35.44 20.93-48.37c1.27-.6 3.61-6.06 4.81-6.89l1.6 5.51 15.37-15.59-6.88 19.09 16.8 9.69-5.36 6-12.55 1s-5.5 1.6-8.88-4.89c0 0-3.11 9.86.72 28.16z" fill="#86eddf" fill-rule="nonzero" stroke="#86eddf" stroke-linecap="round" stroke-linejoin="round"/><circle cx="50.43" cy="24.43" fill="#5d76dd" fill-rule="nonzero" r="1.43"/><g stroke="#1b1723" stroke-linecap="round" stroke-linejoin="round" stroke-width="1.74"><path d="m18.5797604 62.5s-5.8-32.67 19.29-44.58c1.16-.55 3.32-5.59 4.43-6.35l1.48 5.07 15.41-16.64-7.59 19.87 17.25 8.42-4.94 5.56-13.33 1.46s-5.08 1.47-8.19-4.5c0 0-2.86 9.08.66 25.95z"/><path d="m18.5130648 61.9746356c-3 2.09-17.00000001-.64-16.50000001-7.07s9.89000001-4.54 11.23000001-9.67-3.69000001-6.65-3.07-10.56c.68-4.3 6.19-3.4 10.47-8.24 4.76-5.38-2.1-10.27 5.19-14.31 7.29-4.04000004 10.37 4 12.44 5.36"/><path d="m53 8 1.81 3.1"/><path d="m49 12 3.63 6.21"/></g></g></svg>