<svg height="46" viewBox="0 0 51 46" width="51" xmlns="http://www.w3.org/2000/svg"><g fill="none" fill-rule="evenodd" transform="translate(1)"><path d="m26.91 17-26.91 26.91" stroke="#ffa4f6" stroke-linecap="round" stroke-linejoin="round" stroke-width="1.5"/><path d="m33.47 18.46-3.13 7.24-3.62-6.69-7.72-.49 5.66-5.08-2.9-5.71 7.42 2.17 6.68-4.9-1.5 7.54 6.64 4.2z" fill="#ffa4f6" fill-rule="nonzero"/><g stroke-linecap="round" stroke-linejoin="round"><path d="m33.23 17.31-2.86 6.62-3.31-6.12-7.06-.44 5.18-4.64-2.65-5.23 6.78 1.99 6.1-4.49-1.37 6.9 6.07 3.84z" stroke="#1b1723" stroke-width="1.5"/><path d="m27.91 18-26.91 26.91" stroke="#1b1723" stroke-width="1.5"/><path d="m41.07 7.62.03-1.62.83 1.07 1.42.31-1.23.81-.14 1.51-.7-1.11-1.28-.13z" fill="#86eddf" fill-rule="nonzero" stroke="#86eddf" stroke-width=".63"/><path d="m45.07 1.62.03-1.62.83 1.07 1.42.31-1.23.81-.14 1.51-.69-1.11-1.29-.13z" fill="#86eddf" fill-rule="nonzero" stroke="#86eddf" stroke-width=".63"/><path d="m47.07 13.62.03-1.62.83 1.07 1.42.31-1.23.81-.14 1.51-.69-1.11-1.29-.13z" fill="#ffa4f6" fill-rule="nonzero" stroke="#ffa4f6" stroke-width=".63"/></g></g></svg>