<svg height="38" viewBox="0 0 54 38" width="54" xmlns="http://www.w3.org/2000/svg"><g fill="none" fill-rule="evenodd" stroke-linecap="round" stroke-linejoin="round"><g stroke-width="1.56" transform="translate(1 1)"><circle cx="9.95" cy="25.95" fill="#5d76dd" fill-rule="nonzero" r="9.95" stroke="#ffa4f6"/><circle cx="41.95" cy="20.95" fill="#5d76dd" fill-rule="nonzero" r="9.95" stroke="#ffa4f6"/><g stroke="#86eddf"><path d="m15.39 9-6.39 18 15.17-2.57z"/><path d="m24.63 24.19 8.66-18.19-17.29 2.59z"/><path d="m42 21.08-11-20 6.36-1.08"/><path d="m12 4 11.02 19.96"/></g><path d="m11.2559869 4.32c-.5847818.09662231-1.1381675-.29610303-1.24-.88-.04917454-.2813139.0161469-.57061258.1814252-.80350469.1652782-.23289211.4167973-.39005052.6985748-.43649531l7.6-.2z" fill="#ffa4f6" fill-rule="nonzero" stroke="#ffa4f6"/></g><g stroke="#1b1723" stroke-width="1.5" transform="translate(3 3)"><circle cx="9.57" cy="24.57" r="9.57"/><circle cx="40.57" cy="19.57" r="9.57"/><path d="m15.15 8-6.15 17.3 14.59-2.47z"/><path d="m23.29 23.49 8.33-17.49-16.62 2.49z"/><path d="m40.59 20.19-10.59-19.19 6.12-1"/><path d="m12 3 10.6 19.19"/><path d="m10.2101735 3.23c-.27173714.05503475-.55412649-.00521685-.77973749-.16636757-.225611-.16115071-.37419149-.40873471-.41026255-.68363243-.05510808-.27022007.00382487-.55120276.1628638-.77650791.15903893-.22530514.40406354-.37492902.6771362-.41349209l7.32000004-.19z" fill="#000" fill-rule="nonzero"/></g></g></svg>