<svg height="79" viewBox="0 0 445 79" width="445" xmlns="http://www.w3.org/2000/svg"><g fill="none" fill-rule="evenodd"><path d="m0 41.8c0-20.8 16-36.8 37.5-36.8 17.7 0 26.8 10.1 26.8 10.1l-8.1 13.2s-8-7.3-17.9-7.3c-13.7 0-20.2 10.1-20.2 20.4 0 10.6 7 21.5 20.2 21.5 10.8 0 19-8.8 19-8.8l9 12.8s-10.1 12-28.8 12c-22.4 0-37.5-15.9-37.5-37.1zm117.1 35.9-4.4-15h-22.3l-4.3 15h-18l24.3-71.5h18.4l24.3 71.5zm-15.4-55.2h-.2s-1.6 7.8-2.9 12.3l-4.1 13.9h14.1l-4-13.9c-1.3-4.5-2.9-12.3-2.9-12.3zm41.4 55.2v-71.5h24.9c7.3 0 10.8.5 13.9 1.7 8.1 3.1 13.2 10.4 13.2 20.8 0 7.6-3.6 15.9-10.7 19.5v.2s1 1.3 2.7 4.3l13.9 25h-19.5l-12.7-24.1h-8.2v24.1zm17.5-39.1h7.6c5.6 0 9.1-3.1 9.1-8.8 0-5.4-2-8.6-10.8-8.6h-5.9zm50.7 39.1v-71.5h24.9c7.3 0 10.8.5 13.9 1.7 8.1 3.1 13.2 10.4 13.2 20.8 0 7.6-3.6 15.9-10.7 19.5v.2s1 1.3 2.7 4.3l13.9 25h-19.5l-12.7-24.1h-8.2v24.1zm17.5-39.1h7.6c5.6 0 9.1-3.1 9.1-8.8 0-5.4-2-8.6-10.8-8.6h-5.9zm50.7 39.1v-71.5h17.5v71.5zm34.3 0v-71.5h44.8v15h-27.3v13h21.8v15h-21.8v13.5h28.7v15z" fill="#86eddf"/><path d="m374 21.81v-21.45h5.31l5.94 10.02c.84 1.41 1.8 3.66 1.8 3.66h.06s-.24-2.31-.24-3.66v-10.02h5.25v21.45h-5.28l-5.97-9.99c-.84-1.41-1.8-3.66-1.8-3.66h-.06s.24 2.31.24 3.66v9.99zm22.69-10.86c0-6.15 4.74-10.95 11.22-10.95s11.22 4.8 11.22 10.95c0 6.3-4.74 11.22-11.22 11.22s-11.22-4.92-11.22-11.22zm5.43 0c0 3.66 2.58 6.42 5.79 6.42s5.79-2.76 5.79-6.42c0-3.51-2.58-6.15-5.79-6.15s-5.79 2.64-5.79 6.15zm20.11 0c0-6.15 4.74-10.95 11.22-10.95s11.22 4.8 11.22 10.95c0 6.3-4.74 11.22-11.22 11.22s-11.22-4.92-11.22-11.22zm5.43 0c0 3.66 2.58 6.42 5.79 6.42s5.79-2.76 5.79-6.42c0-3.51-2.58-6.15-5.79-6.15s-5.79 2.64-5.79 6.15zm-53.66 37.86v-21.45h5.31l5.94 10.02c.84 1.41 1.8 3.66 1.8 3.66h.06s-.24-2.31-.24-3.66v-10.02h5.25v21.45h-5.28l-5.97-9.99c-.84-1.41-1.8-3.66-1.8-3.66h-.06s.24 2.31.24 3.66v9.99zm38.22 0-1.32-4.5h-6.69l-1.29 4.5h-5.4l7.29-21.45h5.52l7.29 21.45zm-4.62-16.56h-.06s-.48 2.34-.87 3.69l-1.23 4.17h4.23l-1.2-4.17c-.39-1.35-.87-3.69-.87-3.69zm15.42 16.56v-21.45h5.31l5.94 10.02c.84 1.41 1.8 3.66 1.8 3.66h.06s-.24-2.31-.24-3.66v-10.02h5.25v21.45h-5.28l-5.97-9.99c-.84-1.41-1.8-3.66-1.8-3.66h-.06s.24 2.31.24 3.66v9.99z" fill="#ffa4f6"/></g></svg>