<svg height="52" viewBox="0 0 54 52" width="54" xmlns="http://www.w3.org/2000/svg"><g fill="none" fill-rule="evenodd" stroke-linecap="round" stroke-linejoin="round" transform="translate(1 1)"><path d="m26.400997 35.7353883c1.3381072 1.7394796 3.0917824 3.1149112 5.1 4 .83.37 6.83 2.94 12.61 0 .3-.16 7.52-4 7.35-11.55-.14-6.3-5.36-9.87-6.3-10.51s-5.89-4-11.55-2.1c-.67.23-6.09 2.15-7.36 7.36-1.31 5.4 2.71 10.83 7.36 12.6.83.32 6 2.17 9.45-1.05 1.9839738-1.8861464 2.7880513-4.7004178 2.1-7.35-.7800032-2.5091061-2.7423827-4.4752235-5.25-5.26" stroke="#86eddf" stroke-width="1.23"/><g stroke="#86eddf" stroke-width="1.23" transform="translate(0 26)"><path d="m9 10.47c.48791991-.1928938.98924743-.3499764 1.5-.47"/><path d="m13.6579634 9.83539515c2.4379343.21305785 4.6075262 1.63192595 5.78 3.77999995 1.54 3.12-.09 6.93-2.3 8.78-4.23 3.55-12.33999997 1.42-15.54999997-3.53-2.58-4-1.3-8.55-1.05-9.44999995 1.15000625-3.71445547 3.82107152-6.7671015 7.35-8.4 3.36907587-1.3538602 7.13092407-1.3538602 10.49999997 0 3.55 1.37 5.17 3.63 6.72 6" stroke-dasharray="3.23"/><path d="m26 9c.29.43.6.85.92 1.27"/></g><g fill="#ffa4f6" fill-rule="nonzero"><path d="m31.65 18.73.32 1.44-1.44.33-30.53-20.5z" stroke="#ffa4f6" stroke-width="2"/><path d="m31.13 17.83.31 1.38-1.38.31-29.06-19.52z" stroke="#1b1723"/></g></g></svg>