<svg height="48" viewBox="0 0 58 48" width="58" xmlns="http://www.w3.org/2000/svg"><g fill="none" fill-rule="evenodd" stroke-linecap="round" stroke-linejoin="round" transform="translate(1 1)"><g fill-rule="nonzero"><path d="m21.75 20.8 5.34-16.8 5.34 13.75 13.75-1.53-8.4 10.69 6.87 9.16-13.74-1.53-6.11 10.69-3.82-13.74-12.98-5.35z" fill="#86eddf" stroke="#86eddf" stroke-width="1.55"/><path d="m41.35 4.1 1.31-4.1 1.3 3.36 3.35-.38-2.05 2.61 1.68 2.24-3.35-.37-1.49 2.6-.93-3.35-3.17-1.3z" fill="#ffa4f6" stroke="#ffa4f6" stroke-width="1.68"/><path d="m3.35 36.1 1.31-4.1 1.3 3.35 3.36-.37-2.05 2.61 1.67 2.23-3.35-.37-1.49 2.61-.93-3.36-3.17-1.3z" fill="#ffa4f6" stroke="#ffa4f6" stroke-width="1.68"/><path d="m49.35 25.1 1.31-4.1 1.3 3.36 3.35-.38-2.04 2.61 1.67 2.24-3.35-.38-1.49 2.61-.93-3.35-3.17-1.31z" fill="#ffa4f6" stroke="#ffa4f6" stroke-width="1.68"/></g><path d="m21.34 22.3 5.18-16.3 5.18 13.33 13.34-1.48-8.15 10.37 6.67 8.89-13.34-1.48-5.92 10.37-3.71-13.33-12.59-5.19z" stroke="#1b1723" stroke-width="1.5"/><path d="m42 3.67 1.17-3.67 1.16 3 3-.33-1.83 2.33 1.5 2-3-.33-1.33 2.33-.84-3-2.83-1.16z" stroke="#1b1723" stroke-width=".75"/><path d="m3 35.67 1.17-3.67 1.16 3 3-.33-1.83 2.33 1.5 2-3-.33-1.33 2.33-.84-3-2.83-1.17z" stroke="#1b1723" stroke-width=".75"/><path d="m50 24.67 1.17-3.67 1.17 3 3-.33-1.84 2.33 1.5 2-3-.33-1.33 2.33-.83-3-2.84-1.16z" stroke="#1b1723" stroke-width=".75"/></g></svg>