<svg height="55" viewBox="0 0 53 55" width="53" xmlns="http://www.w3.org/2000/svg"><g fill="none" fill-rule="evenodd" transform="translate(1 1)"><g stroke-linecap="round" stroke-linejoin="round"><path d="m50.84 53h-14.84v-49.82l14.84-3.18z" fill="#5d76dd" fill-rule="nonzero" stroke="#5d76dd"/><path d="m49 52h-14v-47l14-3z" stroke="#1b1723" stroke-width="1.5"/><path d="m43 6h2v46h-2z" stroke="#1b1723" stroke-width="1.5"/><path d="m22 17h15.9v36.04h-15.9z" fill="#ffa4f6" fill-rule="nonzero" stroke="#ffa4f6"/><path d="m22 10h15.9v4.24h-15.9z" fill="#ffa4f6" fill-rule="nonzero" stroke="#ffa4f6"/><path d="m24 14h11.66v3.18h-11.66z" fill="#ffa4f6" fill-rule="nonzero" stroke="#ffa4f6"/><path d="m30 9.36v-6.36" stroke="#ffa4f6" stroke-width="1.59"/><path d="m22 18h15v34h-15z" stroke="#1b1723" stroke-width="1.5"/><path d="m22 11h15v4h-15z" stroke="#1b1723" stroke-width="1.5"/><path d="m24 15h11v3h-11z" stroke="#1b1723" stroke-width="1.5"/><path d="m0 30h27.03v23.32h-27.03z" fill="#86eddf" fill-rule="nonzero" stroke="#86eddf"/></g><path d="m9 29.83c0-3.2198201 2.6101799-5.83 5.83-5.83s5.83 2.6101799 5.83 5.83" fill="#86eddf" fill-rule="nonzero"/><path d="m14 23.36v-6.36" stroke="#86eddf" stroke-linecap="round" stroke-linejoin="round" stroke-width="1.59"/><path d="m1 30h25.5v22h-25.5z" stroke="#1b1723" stroke-linecap="round" stroke-linejoin="round" stroke-width="1.5"/><path d="m8 29.5c0-3.0375661 2.4624339-5.5 5.5-5.5s5.5 2.4624339 5.5 5.5" stroke="#1b1723" stroke-linecap="round" stroke-linejoin="round" stroke-width="1.5"/></g></svg>