<svg height="52" viewBox="0 0 47 52" width="47" xmlns="http://www.w3.org/2000/svg"><g fill="none" fill-rule="evenodd" stroke-linecap="round" stroke-linejoin="round" transform="translate(1 1)"><g stroke-width="1.57"><path d="m44.29 23-2.4 14.26-3.89 4.75" stroke="#5d76dd"/><path d="m2.12 36.02-2.12-5.76 2.41-14.26" stroke="#5d76dd"/><g fill-rule="nonzero"><path d="m6.83507297 22.6000129h3.13c1.65685423 0 3.00000003 1.3431457 3.00000003 3v16.84c0 1.6568542-1.3431458 3-3.00000003 3h-3.13c-1.65685425 0-3-1.3431458-3-3v-16.84c0-1.6568543 1.34314575-3 3-3z" fill="#ffa4f6" stroke="#ffa4f6" transform="matrix(.98608322 .16625246 -.16625246 .98608322 5.772813 -.923084)"/><path d="m31.835073 26.6000129h3.13c1.6568542 0 3 1.3431457 3 3v16.84c0 1.6568542-1.3431458 3-3 3h-3.13c-1.6568543 0-3-1.3431458-3-3v-16.84c0-1.6568543 1.3431457-3 3-3z" fill="#ffa4f6" stroke="#ffa4f6" transform="matrix(.98608322 .16625246 -.16625246 .98608322 6.785742 -5.023728)"/><path d="m44.4 22.7307702-6.35-1.07c1.27-7.51-4.44-13.71999995-12.46-15.06999995l-.53-.09c-8-1.36-15.45 2.64-16.72 10.14999995l-6.34-1.07.15-.89c1.74-10.31999995 12-16.20999995 23-14.34999995l2.29.39c11 1.86 18.81 10.78999995 17.07 21.10999995z" fill="#5d76dd" stroke="#5d76dd"/></g></g><g stroke="#1b1723"><path d="m6.7873464 22.5826272h2.7491072c1.6568543 0 3 1.3431458 3 3v15.8677456c0 1.6568542-1.3431457 3-3 3h-2.7491072c-1.65685425 0-3-1.3431458-3-3v-15.8677456c0-1.6568542 1.34314575-3 3-3z" stroke-width="1.506735" transform="matrix(.98557485 .16924012 -.16924012 .98557485 5.790073 -.89784)"/><path d="m30.7490504 26.5725453h2.71c1.6568543 0 3 1.3431458 3 3v15.77c0 1.6568543-1.3431457 3-3 3h-2.71c-1.6568542 0-3-1.3431457-3-3v-15.77c0-1.6568542 1.3431458-3 3-3z" stroke-width="1.5" transform="matrix(.98608322 .16625246 -.16625246 .98608322 6.674194 -4.816089)"/><path d="m43.33 22.633619-6-1c1.2-7.16-4.24-13.08999998-11.89-14.36999998l-.5-.09c-7.65-1.29-14.73 2.53-15.94 9.67999998l-6-1 .14-.84c1.66-9.83999998 11.46-15.45999998 22-13.68999998l2.17.37c10.52 1.77 17.94 10.28999998 16.28 20.12999998z" stroke-width="1.5"/></g></g></svg>