<svg height="49" viewBox="0 0 58 49" width="58" xmlns="http://www.w3.org/2000/svg"><g fill="none" fill-rule="evenodd"><path d="m5.93961354 3.95545224h45.99999996c1.6568543 0 3 1.34314575 3 3v34.43999996c0 1.6568543-1.3431457 3-3 3h-45.99999996c-1.65685425 0-3-1.3431457-3-3v-34.43999996c0-1.65685425 1.34314575-3 3-3z" fill="#86eddf" fill-rule="nonzero" transform="matrix(.98671431 -.16246495 .16246495 .98671431 -3.543181 5.02286)"/><g stroke="#1b1723" stroke-linecap="round" stroke-linejoin="round" stroke-width="1.5"><path d="m7.82698889 5.80328369h44.00000001c1.6568542 0 3 1.34314575 3 3v32.89000001c0 1.6568542-1.3431458 3-3 3h-44.00000001c-1.65685425 0-3-1.3431458-3-3v-32.89000001c0-1.65685425 1.34314575-3 3-3z" transform="matrix(.98671431 -.16246495 .16246495 .98671431 -3.705689 5.181281)"/><path d="m43.86 12.97 1.14.87.71-1.18 1.05.89.75-1.19 1.04.9.78-1.19-.69-4.19-.17-1-1.11-.88-.71 1.18-1.08-.89-.72 1.19-1.04-.9-.81 1.2z" fill="#5d76dd" fill-rule="nonzero"/><path d="m22 24.46 14.9-2.46"/><path d="m21 28.06 18.62-3.06"/><path d="m23 31.45 14.89-2.45"/><path d="m11.3806548 18.97 1-5.22c.0254023-.8970622-.6469881-1.6611422-1.54-1.75-.4236818.0047508-.8269496.1827384-1.11598623.4925555-.28903667.3098171-.43864283.7244525-.41401377 1.1474445l-.07 1.16-.95-.54c-.34242021-.2339212-.7695233-.3076756-1.17056286-.2021389-.40103956.1055368-.73651445.3799696-.91943714.7521389-.41325211.8138132-.17122331 1.8074051.57 2.34z" fill="#ffa4f6" fill-rule="nonzero"/></g></g></svg>