<svg height="46" viewBox="0 0 56 46" width="56" xmlns="http://www.w3.org/2000/svg"><g fill="none" fill-rule="evenodd" stroke-linecap="round" stroke-linejoin="round" transform="translate(1)"><path d="m0 44.72 15.42-36.72 27.78 36.72z" fill="#5d76dd" fill-rule="nonzero" stroke="#5d76dd"/><path d="m1 43 14.28-34 25.72 34z" stroke="#1b1723" stroke-width="1.5"/><path d="m10 22 3.23 2 4-3 3.77 2" stroke="#1b1723" stroke-width="1.5"/><path d="m11 45.36 22.14-45.36 21.06 45.36z" fill="#86eddf" fill-rule="nonzero" stroke="#86eddf"/><path d="m11 43 20.5-42 19.5 42z" stroke="#1b1723" stroke-width="1.5"/><path d="m37.23 14-4.23 3.16-4-3-5 3" stroke="#1b1723" stroke-width="1.5"/><path d="m3 44.68 28.62-22.68 14.58 22.68z" fill="#ffa4f6" fill-rule="nonzero" stroke="#ffa4f6"/><g stroke="#1b1723" stroke-width="1.5"><path d="m4 43 26.5-21 13.5 21z"/><path d="m36.67 31.67-4.23 3.16-4-3-5 3-3.44-3.83"/></g></g></svg>