<svg height="54" viewBox="0 0 44 54" width="44" xmlns="http://www.w3.org/2000/svg"><g fill="none" fill-rule="evenodd" stroke-linecap="round" stroke-linejoin="round" transform="translate(1 1)"><path d="m1 16.74 1.1-13.84 5.55 14.79 2-8.12 3.82 8.94 7.71-18.51-.22 19.56 3.92-9.71.94 11.33 11.48-15.17-5.53 15.08 7.69-6.38-3.66 7.88-1.4 2.41-33.27-4.69z" fill="#86eddf" fill-rule="nonzero" stroke="#86eddf" stroke-width="1.57"/><path d="m3.55 47.5 26.74 3.77 11.3-26.4-41.59-5.87z" fill="#5d76dd" fill-rule="nonzero" stroke="#5d76dd" stroke-width="1.57"/><g stroke="#1b1723" stroke-width="1.5"><path d="m36.28 23.53 3.35-6.52-7.32 6.08 5.26-14.37-10.79 13.47-1.04-9.8-3.73 9.24.21-18.63-7.34 17.63-3.65-8.52-1.89 7.74-5.29-14.08-1.05 13.18"/><path d="m4.38 46.14 25.46 3.6 10.77-25.15-39.61-5.59z"/><path d="m2 28 34.06 4.81"/></g></g></svg>