<svg height="53" viewBox="0 0 35 53" width="35" xmlns="http://www.w3.org/2000/svg"><g fill="none" fill-rule="evenodd"><g fill-rule="nonzero"><path d="m10.7359367 37-3.66 13.23c-.30783308 1.1258091.3476801 2.2896794 1.47 2.61.54238014.1502957 1.12226406.0787501 1.6118484-.1988687.4895844-.2776187.8486827-.7385227.9981516-1.2811313l3.66-13.19z" fill="#86eddf"/><path d="m27.8503917 40.1693728c-.5929733 2.1436582-2.013815 3.9636525-3.9495268 5.0590553-1.9357119 1.0954028-4.2274885 1.3763476-6.3704732.7809447l-11.40999996-3.16c-4.45343006-1.2526275-7.052527-5.8737413-5.81-10.33l5.83-21c1.00450685-3.66426274 3.4259587-6.77813076 6.72987726-8.65429119 3.3039185-1.87616043 7.2186546-2.36035486 10.8801227-1.34570879 3.6642628 1.00450685 6.7781308 3.4259587 8.6542913 6.72987722 1.8761604 3.30391856 2.3603548 7.21865466 1.3457087 10.88012276z" fill="#5d76dd"/><path d="m33.8817232 14.1776666c.2079896-2.4144859-.263067-4.83904191-1.36-7-1.8525839-3.3247305-4.9917257-5.74056777-8.68-6.68-3.6693661-.99344225-7.5831657-.48710433-10.878907 1.40743109-3.29574131 1.89453542-5.70293137 5.02177719-6.691093 8.69256891l-2.16 8c-.45799115 2.5896134.51228878 5.2254132 2.54 6.9 2.09704382 1.7140812 4.9947277 2.0646075 7.44.9 2.85-1.56 2.8-5.21 4.72-5.31 1.51-.08 2 2.15 3.82 2.13 1.59 0 1.75-1.7 3.9-2.25s2.87.68 4.37.08c2.57-.99 2.9-5.66 2.98-6.87z" fill="#5d76dd"/></g><g stroke="#1b1723" stroke-width="1.5" transform="translate(1 3)"><path d="m11.522994 34-3.45 12.45c-.29426499 1.0630003.32760151 2.1635698 1.39 2.46 1.0630003.294265 2.1635698-.3276015 2.46-1.39l3.46-12.45z"/><path d="m26.3075366 36.9627588c-1.1714247 4.2085584-5.5293465 6.6738714-9.74 5.51l-10.75999999-3c-4.21260083-1.1670276-6.68317225-5.526333-5.52-9.74l5.51-19.83999997c1.99314814-7.18077444 9.42787169-11.38826397 16.60999999-9.4 3.4521942.95472345 6.382984 3.24316037 8.1462897 6.36083494 1.7633057 3.11767456 2.214353 6.80861333 1.2537103 10.25916503z"/><path d="m32.2075381 13.4727588c.2095715-2.2790071-.2198083-4.57134126-1.24-6.61999997-1.7248954-3.14780567-4.6684542-5.44768699-8.14-6.36-7.1821283-1.98826397-14.61685182 2.21922556-16.60999996 9.4l-2.1 7.54999997c-.45682733 2.4395534.43770346 4.9358295 2.34 6.53 1.9645006 1.6235013 4.68570076 1.9772573 6.99999996.91 2.7-1.46 2.68-4.9 4.49-5 1.42-.06 1.86 2 3.59 2 1.5 0 1.66-1.58 3.69-2.09s2.7.66 4.12.11c2.46-.89 2.77-5.27 2.86-6.43z"/></g></g></svg>