<svg height="47" viewBox="0 0 65 47" width="65" xmlns="http://www.w3.org/2000/svg"><g fill="none" fill-rule="evenodd" stroke-linecap="round" stroke-linejoin="round" transform="translate(1 1)"><path d="m12 20.1371225s8.1-21.32000003 27.53-16.40000003 14.71 27.09000003 14.71 27.09000003l-4.88-1.23s3.63-17.06-11.31-20.84000003c-14.94-3.78-21.18 12.61000003-21.18 12.61000003z" fill="#86eddf" fill-rule="nonzero" stroke="#86eddf" stroke-width="1.74"/><path d="m58.29 34.4524138s5.84-27.45000001-18.21-33.54000001-34.08 20.30000001-34.08 20.30000001l3.52.89s8.67-22.84000001 29.49-17.57000001 15.76 29.00000001 15.76 29.00000001z" fill="#ffa4f6" fill-rule="nonzero" stroke="#ffa4f6" stroke-width="1.62"/><path d="m12 24.9050837s7.52-19.79000003 25.56-15.22000003c18.04 4.57000003 13.66 25.16000003 13.66 25.16000003l-4.52-1.15s3.37-15.84-10.51-19.35-19.69 11.71-19.69 11.71z" fill="#5d76dd" fill-rule="nonzero" stroke="#5d76dd" stroke-width="1.62"/><g stroke="#1b1723" stroke-width="1.5"><path d="m8 22.666891s9.3-24.47 31.59-18.82 16.88 31.09 16.88 31.09"/><path d="m11 23.0132261s8-21.16999998 27.33-16.27999998c19.33 4.88999998 14.61 26.90999998 14.61 26.90999998"/><path d="m14 23.745942s7-18.35000003 23.69-14.11000003c16.69 4.24000003 12.67 23.32000003 12.67 23.32000003"/><path d="m18 25.3389172s5.36-14.11 18.22-10.85 9.74 17.94 9.74 17.94"/></g><path d="m18.1856148 23.6119141c-.2620639-1.8252838-1.6814766-3.2675998-3.5023321-3.558845-1.8208554-.2912451-3.6193377.6363698-4.4376679 2.288845-3.43999996-2.84-7.83999996-2.24-9.44999996 0s-.68 6.72 1.92 7.79c1.11993524.3698599 2.34007992.2873207 3.4-.23.14563557 1.8920076 1.53066103 3.4568658 3.39096672 3.8312523 1.86030564.3743865 3.74284504-.5328742 4.60903324-2.2212523 1.5918557 1.7606378 4.216714 2.127191 6.23.87 2.25-1.59 2.06-5 .66-6.95-.7155338-.8988876-1.7061783-1.5382397-2.82-1.82z" fill="#86eddf" fill-rule="nonzero" stroke="#86eddf" stroke-width="1.62"/><path d="m55.9000931 43.2917593c-1.0983236 1.4825354-3.0340007 2.077174-4.7752202 1.4669442-1.7412196-.6102298-2.8822151-2.2831225-2.8147798-4.1269442-4.37.86-8-1.77-8.29-4.55s2.61-6.23 5.41-5.93c1.1618189.2047561 2.1963765.858539 2.88 1.82 1.022583-1.6146098 2.9989686-2.3455226 4.8260459-1.7847828 1.8270773.5607399 3.0531758 2.2745123 2.9939541 4.1847828 2.2341867-.7920902 4.7144554.1359015 5.88 2.2 1.23 2.47-.58 5.41-2.72 6.43-1.0662865.471048-2.2591996.5730966-3.39.29z" fill="#86eddf" fill-rule="nonzero" stroke="#86eddf" stroke-width="1.62"/><path d="m18.8681698 24.3406274c-.2489688-1.6908675-1.5672883-3.0240957-3.2552493-3.2920624-1.687961-.2679666-3.3543636.5914318-4.1147507 2.1220624-3.18000001-2.63-7.26000001-2.07-8.76000001 0s-.62 6.24 1.79 7.23c1.037083.3444473 2.16781783.269065 3.15-.21.12511741 1.7642128 1.41330474 3.2275093 3.14742301 3.5752665 1.7341182.3477573 3.486905-.5057073 4.282577-2.0852665 1.4762013 1.6280506 3.9065455 1.9650134 5.77.8 2.09-1.47 1.92-4.66.61-6.44-.6640261-.8378255-1.5843182-1.4349615-2.62-1.7z" stroke="#1b1723" stroke-width="1.5"/><path d="m53.7028285 42.3307988c-1.0323725 1.3323215-2.8023305 1.8531362-4.3917724 1.2922903s-2.6406014-2.0771121-2.6082276-3.7622903c-4 .8-7.38-1.64-7.68-4.21s2.41-5.78 5-5.5c1.0743902.1850434 2.0312426.7893712 2.66 1.68.9476132-1.499429 2.7821767-2.1782484 4.4775589-1.6567722 1.6953821.5214762 2.8313179 2.1139802 2.7724411 3.8867722 2.0641697-.7392171 4.3617076.1023719 5.46 2 1.14 2.29-.54 5-2.53 6-.9931144.4423499-2.1062374.5374585-3.16.27z" stroke="#1b1723" stroke-width="1.5"/></g></svg>