<svg height="35" viewBox="0 0 70 35" width="70" xmlns="http://www.w3.org/2000/svg"><g fill="none" fill-rule="evenodd"><g fill="#ffa4f6" fill-rule="nonzero"><path d="m58.8893217 34.2501779c-.7752073.0006585-1.547593-.0933711-2.3-.28l-48.64000004-12.17c-5.29139985-1.4122576-8.66487082-6.5889394-7.82-12.00000005l.23-1.35c.67322633-4.30941332 4.39840399-7.47751532 8.76-7.45.77520727-.00065855 1.54759294.09337101 2.30000004.28l48.64 12.18000005c5.2971942 1.4042535 8.6745331 6.5868707 7.82 12l-.23 1.35c-.6776683 4.3054362-4.4016499 7.4682698-8.76 7.44z"/><path d="m9.97387334 1.69002806c.70456306.00268669 1.40625376.08997837 2.08999996.26l48.65 12.20000004c4.8526814 1.2944636 7.9517514 6.0357389 7.19 11l-.23 1.35c-.6166049 3.8979609-3.9835957 6.7639367-7.93 6.75-.704563-.0026867-1.4062537-.0899784-2.09-.26l-48.64999996-12.14c-4.87890197-1.2965056-7.98522478-6.0747991-7.19-11.06000004l.23-1.34c.6121764-3.90193644 3.98035515-6.77317079 7.93-6.76zm0-1.69c-4.76594275-.01138703-8.83257575 3.44461494-9.59 8.15l-.24 1.35c-.92803113 5.85784744 2.71984907 11.46997084 8.45 13.00000004l48.64999996 12.18c.8175288.2051359 1.6571279.3092462 2.5.31 4.7659428.011387 8.8325758-3.444615 9.59-8.15l.24-1.35c.9280312-5.8578475-2.719849-11.4699709-8.45-13l-48.65-12.18000004c-.8175287-.20513599-1.6571278-.30924628-2.49999996-.31z"/></g><path d="m63.29 28.77-8.29-1.77" stroke="#86eddf" stroke-linecap="round" stroke-linejoin="round" stroke-width="1.59"/><path d="m65.22 26.32-6.22-1.32" stroke="#86eddf" stroke-linecap="round" stroke-linejoin="round" stroke-width="1.59"/><path d="m5 6 8.29 1.76" stroke="#86eddf" stroke-linecap="round" stroke-linejoin="round" stroke-width="1.59"/><path d="m3 9 6.22 1.32" stroke="#86eddf" stroke-linecap="round" stroke-linejoin="round" stroke-width="1.59"/><g fill-rule="nonzero"><path d="m12.5065947 3.58c.6186958.00112715 1.2355107.06817224 1.84.2l44.73 9.49c4.8153085 1.0293968 7.8886308 5.7624026 6.87 10.58v.09c-.9014783 4.1064449-4.5258652 7.0416585-8.73 7.07-.6186959-.0011272-1.2355107-.0681722-1.84-.2l-44.73-9.49c-4.81193876-1.0342905-7.88278944-5.76349-6.87000002-10.58v-.09c.9014783-4.10644486 4.52586522-7.04165854 8.73000002-7.07zm0-1.58c-4.95673939.01107907-9.23599069 3.47444199-10.28000002 8.32v.09c-1.19107063 5.6728317 2.43111809 11.2402699 8.10000002 12.45l44.73 9.5c.7136485.1501419 1.4407339.2272062 2.17.23 4.9567393-.0110791 9.2359906-3.474442 10.28-8.32v-.09c1.1857573-5.6685678-2.4285423-11.2307471-8.09-12.45l-44.73-9.5c-.7136486-.1501419-1.4407339-.22720624-2.17-.23z" fill="#1b1723"/><g transform="translate(40 13)"><path d="m5.34570556 12.3205433c-.71525799-.0110388-1.41121153-.2337439-2-.64l-.67-.46c-1.63527889-1.0485346-2.15904011-3.19639577-1.19-4.87999999l2.48-3.91c.58071546-.90859945 1.59186394-1.45015088 2.67-1.43.71701418.00969965 1.41428212.23631173 2 .65l.67.45c1.63662874 1.05227377 2.16010554 3.20336759 1.19000004 4.89l-2.48000004 3.90999999c-.58712621.9004018-1.59521304 1.4365378-2.67 1.42z" fill="#86eddf"/><path d="m6.50278565 1.71019724c.55871956.00431867 1.10286884.17872549 1.56.5l.66.45c1.25602278.78682916 1.69221165 2.40945189 1 3.72l-2.54 3.90999996c-.42821148.6486361-1.16325278 1.0275233-1.94 1-.55698092-.0056823-1.09980449-.1761845-1.56-.49l-.66-.46c-1.26314569-.77676515-1.70165606-2.40363862-1-3.70999996l2.47-3.91c.44487373-.66133845 1.204005-1.04090409 2-1zm-.01-1.71c-1.37221025-.01360267-2.65560679.67716664-3.4 1.83l-2.48 3.9c-1.2070842 2.07940244-.57934992 4.73959106 1.43 6.05999996l.67.46c.74320032.5160285 1.6252313.7949316 2.53.8 1.37221025.0136027 2.65560678-.6771666 3.4-1.83l2.47999995-3.90999996c1.2051762-2.0819247.572897-4.74276595-1.43999995-6.06l-.66-.46c-.74598149-.50912211-1.62686113-.78417939-2.53-.79z" fill="#1b1723"/></g><g transform="translate(18 9)"><path d="m5.45184476 12.2809389c-1.74571189.0433969-3.27493301-1.1623351-3.64-2.87000002l-.77-4.56c-.13784832-.82512284.06812723-1.67070666.57-2.34.58200774-.77218618 1.45090623-1.27694049 2.41-1.4l.81-.11h.51c1.74437513-.03938966 3.27134817 1.16456985 3.64 2.87l.77 4.57c.13430711.82498913-.07133322 1.66919682-.57 2.34000002-.58610878.7658575-1.45358415 1.2661856-2.41 1.39l-.8.11z" fill="#86eddf"/><path d="m5.1905733 1.68094105c1.32889476-.04607583 2.50173478.86192935 2.79 2.16l.77 4.56c.09719923.59244349-.05081388 1.19893626-.41 1.67999995-.4451527.5871652-1.10875069.9694554-1.84 1.06l-.8.1c-.13314856.009927-.26685143.009927-.4 0-1.32759185.0420476-2.49816132-.8641997-2.79-2.15999995l-.77-4.56c-.09919235-.59401915.05293892-1.20254421.42-1.68.44997545-.56672735 1.11000888-.92740136 1.83-1l.8-.11c.13314857-.009927.26685144-.009927.4 0zm0-1.67c-.20974665-.01458807-.42025334-.01458807-.63 0l-.8.11c-1.13028432.11151984-2.16617713.67925281-2.86829861 1.57200404-.70212148.89275124-1.00971544 2.03326893-.85170139 3.15799596l.77000001 4.56c.43400555 2.12352615 2.32302113 3.63389725 4.48999999 3.58999995.20973509.0149175.42026492.0149175.63 0l.8-.11c1.13028433-.1115198 2.16617714-.6792528 2.86829862-1.572004s1.00971548-2.03326892.85170138-3.15799595l-.77-4.56c-.43400555-2.1235262-2.32302113-3.63389724-4.49-3.59z" fill="#1b1723"/></g><g transform="translate(42 15)"><path d="m3.33435484.12162374h1.28v6.28h-1.28z" fill="#fff" transform="matrix(.55004354 -.83513598 .83513598 .55004354 -.935613 4.786716)"/><path d="m1.65 0-1.65 2.51 6.68 4.4 1.65-2.51z" fill="#1b1723"/></g><g transform="translate(19 12)"><path d="m1.06034047 1.46129466h6.28v1.28h-6.28z" fill="#fff" transform="matrix(.98880852 -.14919019 .14919019 .98880852 -.266485 .650166)"/><path d="m7.91 0-7.91 1.19.45 2.97 7.91-1.2z" fill="#1b1723"/></g></g></g></svg>