<svg height="56" viewBox="0 0 54 56" width="54" xmlns="http://www.w3.org/2000/svg"><g fill="none" fill-rule="evenodd" stroke-linecap="round" stroke-linejoin="round" transform="translate(1 1)"><path d="m27.03 25.29 4.86.42-6.24-13.36 4.26.37-5.94-12.72-8.05 11.51 4.26.37-8.45 12.08 4.87.42-5.6 8.01 9.02.78-1.09 12.56 2.11.19 1.09-12.56 9.03.78z" fill="#86eddf" fill-rule="nonzero" stroke="#86eddf" stroke-width="1.59"/><path d="m26.16 24.91 4.6.4-5.9-12.63 4.02.35-5.62-12.03-7.6 10.88 4.02.35-7.99 11.42 4.6.4-5.29 7.57 8.54.75-1.04 11.88 2 .17 1.03-11.88 8.54.74z" stroke="#1b1723" stroke-width="1.5"/><path d="m20.16 37.71-6.24-13.36 4.26.37-5.94-12.72-8.05 11.5 4.26.37-8.45 12.09 9.02.78-1.18 13.62 2.11.18 1.18-13.62z" fill="#ffa4f6" fill-rule="nonzero" stroke="#ffa4f6" stroke-width="1.59"/><path d="m20.07 36.32-5.9-12.63 4.02.35-5.62-12.04-7.61 10.89 4.03.35-7.99 11.42 8.54.75-1.12 12.87 1.99.18 1.12-12.88z" stroke="#1b1723" stroke-width="1.5"/><path d="m47.03 32.28 4.87.43-6.24-13.36 4.26.37-5.94-12.72-8.05 11.5 4.26.37-8.45 12.08 4.86.43-5.6 8 9.07.79-1.18 13.62 2.1.18 1.19-13.62 8.99.79z" fill="#5d76dd" fill-rule="nonzero" stroke="#5d76dd" stroke-width="1.59"/><path d="m46.15 30.91 4.61.4-5.9-12.63 4.02.35-5.62-12.03-7.61 10.88 4.03.35-7.99 11.43 4.6.4-5.29 7.57 8.57.74-1.12 12.88 1.99.17 1.12-12.88 8.5.74z" stroke="#1b1723" stroke-width="1.5"/></g></svg>