<svg height="50" viewBox="0 0 62 50" width="62" xmlns="http://www.w3.org/2000/svg"><g fill="none" fill-rule="evenodd" stroke-linecap="round" stroke-linejoin="round" transform="translate(1 1)"><g stroke-width="1.59"><g fill-rule="nonzero"><path d="m6.56291886 5.61005161h47.00000004c1.6568542 0 3 1.34314575 3 3v31.09999999c0 1.6568543-1.3431458 3-3 3h-47.00000004c-1.65685425 0-3-1.3431457-3-3v-31.09999999c0-1.65685425 1.34314575-3 3-3z" fill="#86eddf" stroke="#86eddf" transform="matrix(.97305829 .23055926 -.23055926 .97305829 6.38027 -6.280371)"/><circle cx="22.25" cy="23.25" fill="#ffa4f6" r="13.25" stroke="#ffa4f6"/><circle cx="22.71" cy="23.71" fill="#86eddf" r="3.71" stroke="#ffa4f6"/><circle cx="43.71" cy="17.71" fill="#5d76dd" r="3.71" stroke="#5d76dd"/></g><path d="m43.03 21-2.93 12.37-5.1 3.15" stroke="#5d76dd"/><circle cx="45.59" cy="40.59" fill="#5d76dd" fill-rule="nonzero" r="1.59" stroke="#5d76dd"/><circle cx="47.59" cy="34.59" fill="#5d76dd" fill-rule="nonzero" r="1.59" stroke="#5d76dd"/></g><g stroke="#1b1723" stroke-width="1.5"><rect height="35" rx="3" transform="matrix(.97305829 .23055926 -.23055926 .97305829 6.303566 -6.359055)" width="50" x="5.361244" y="6.292502"/><circle cx="22.5" cy="23.5" r="12.5"/><circle cx="22.5" cy="23.5" r="3.5"/><circle cx="42.5" cy="17.5" r="3.5"/><circle cx="45.5" cy="39.5" r="1.5"/><circle cx="47.5" cy="34.5" r="1.5"/></g></g></svg>